<?xml version="1.0" standalone="no"?><!DOCTYPE svg PUBLIC "-//W3C//DTD SVG 1.1//EN" "http://www.w3.org/Graphics/SVG/1.1/DTD/svg11.dtd"><svg t="1595309260035" class="icon" viewBox="0 0 1024 1024" version="1.1" xmlns="http://www.w3.org/2000/svg" p-id="23497" xmlns:xlink="http://www.w3.org/1999/xlink" width="256" height="256"><path d="M512 1024C229.2224 1024 0 794.7776 0 512S229.2224 0 512 0s512 229.2224 512 512-229.2224 512-512 512z m0-51.2a460.8 460.8 0 1 0 0-921.6 460.8 460.8 0 0 0 0 921.6z m-32-492.8v-192a32 32 0 1 1 64 0v192h192a32 32 0 1 1 0 64h-192v192a32 32 0 1 1-64 0v-192h-192a32 32 0 1 1 0-64h192z" p-id="23498" fill="#dbdbdb"></path></svg>